<?xml version="1.0" encoding="utf-8"?>
<!-- Generator: Adobe Illustrator 19.1.0, SVG Export Plug-In . SVG Version: 6.00 Build 0)  -->
<svg version="1.1" id="Layer_1" xmlns="http://www.w3.org/2000/svg" xmlns:xlink="http://www.w3.org/1999/xlink" x="0px" y="0px"
	 viewBox="0 0 65.3 56.6" style="enable-background:new 0 0 65.3 56.6;" xml:space="preserve">
<style type="text/css">
	.st0{clip-path:url(#SVGID_2_);fill:#4995EC;}
	.st1{clip-path:url(#SVGID_2_);fill:#444B54;}
	.st2{clip-path:url(#SVGID_2_);fill:#61B63D;}
</style>
<g>
	<defs>
		<rect id="SVGID_1_" y="0" width="65.3" height="56.6"/>
	</defs>
	<clipPath id="SVGID_2_">
		<use xlink:href="#SVGID_1_"  style="overflow:visible;"/>
	</clipPath>
	<path class="st0" d="M10.5,5.7C9.7,5.3,8.8,5.1,7.9,5.1c-3.2,0-5.8,2.6-5.8,5.8s2.6,5.8,5.8,5.8c0.9,0,1.8-0.2,2.5-0.6V5.7z"/>
	<path class="st1" d="M58.7,0H16.1c-3.3,0-6,2.7-6,6v5.1v33.5H0.9C0.4,44.5,0,45,0,45.5v5.1c0,3.3,2.7,6,6,6h42.5c3.3,0,6-2.7,6-6
		V12h9.2c0.5,0,0.9-0.4,0.9-0.9V6C64.7,2.7,62,0,58.7,0 M6,54.7c-2.3,0-4.1-1.8-4.1-4.1v-4.1h9.2c0,0,0,0,0,0c0,0,0,0,0,0h31.4v4.1
		c0,1.6,0.6,3,1.6,4.1H6z M52.6,50.6c0,2.3-1.8,4.1-4.1,4.1c-2.3,0-4.1-1.8-4.1-4.1v-5.1c0-0.5-0.4-0.9-1-0.9H12V11.1V6
		c0-2.3,1.8-4.1,4.1-4.1h38.1c-1,1.1-1.6,2.5-1.6,4.1v5.1V50.6z M62.8,10.1h-8.2V6c0-2.3,1.8-4.1,4.1-4.1c2.3,0,4.1,1.8,4.1,4.1
		V10.1z"/>
	<path class="st1" d="M20.2,9.1h-2c-0.5,0-0.9,0.4-0.9,0.9c0,0.5,0.4,0.9,0.9,0.9h2c0.5,0,0.9-0.4,0.9-0.9
		C21.1,9.5,20.7,9.1,20.2,9.1"/>
	<path class="st1" d="M46.5,9.1H24.2c-0.5,0-0.9,0.4-0.9,0.9c0,0.5,0.4,0.9,0.9,0.9h22.3c0.5,0,0.9-0.4,0.9-0.9
		C47.5,9.5,47,9.1,46.5,9.1"/>
	<path class="st1" d="M20.2,14.2h-2c-0.5,0-0.9,0.4-0.9,0.9c0,0.5,0.4,0.9,0.9,0.9h2c0.5,0,0.9-0.4,0.9-0.9
		C21.1,14.6,20.7,14.2,20.2,14.2"/>
	<path class="st1" d="M24.2,16.1h18.2c0.5,0,0.9-0.4,0.9-0.9c0-0.5-0.4-0.9-0.9-0.9H24.2c-0.5,0-0.9,0.4-0.9,0.9
		C23.3,15.6,23.7,16.1,24.2,16.1"/>
	<path class="st1" d="M20.2,19.2h-2c-0.5,0-0.9,0.4-0.9,0.9c0,0.5,0.4,0.9,0.9,0.9h2c0.5,0,0.9-0.4,0.9-0.9
		C21.1,19.7,20.7,19.2,20.2,19.2"/>
	<path class="st1" d="M46.5,19.2H24.2c-0.5,0-0.9,0.4-0.9,0.9c0,0.5,0.4,0.9,0.9,0.9h22.3c0.5,0,0.9-0.4,0.9-0.9
		C47.5,19.7,47,19.2,46.5,19.2"/>
	<path class="st1" d="M20.2,24.3h-2c-0.5,0-0.9,0.4-0.9,0.9s0.4,0.9,0.9,0.9h2c0.5,0,0.9-0.4,0.9-0.9S20.7,24.3,20.2,24.3"/>
	<path class="st1" d="M24.2,26.2h20.2c0.5,0,0.9-0.4,0.9-0.9s-0.4-0.9-0.9-0.9H24.2c-0.5,0-0.9,0.4-0.9,0.9S23.7,26.2,24.2,26.2"/>
	<path class="st1" d="M20.2,29.4h-2c-0.5,0-0.9,0.4-0.9,0.9s0.4,0.9,0.9,0.9h2c0.5,0,0.9-0.4,0.9-0.9S20.7,29.4,20.2,29.4"/>
	<path class="st1" d="M24.2,31.3h16.2c0.5,0,0.9-0.4,0.9-0.9s-0.4-0.9-0.9-0.9H24.2c-0.5,0-0.9,0.4-0.9,0.9S23.7,31.3,24.2,31.3"/>
	<path class="st1" d="M20.2,34.4h-2c-0.5,0-0.9,0.4-0.9,0.9s0.4,0.9,0.9,0.9h2c0.5,0,0.9-0.4,0.9-0.9S20.7,34.4,20.2,34.4"/>
	<path class="st1" d="M46.5,34.4H24.2c-0.5,0-0.9,0.4-0.9,0.9s0.4,0.9,0.9,0.9h22.3c0.5,0,0.9-0.4,0.9-0.9S47,34.4,46.5,34.4"/>
	<path class="st1" d="M20.2,39.5h-2c-0.5,0-0.9,0.4-0.9,0.9s0.4,0.9,0.9,0.9h2c0.5,0,0.9-0.4,0.9-0.9S20.7,39.5,20.2,39.5"/>
	<path class="st1" d="M43.5,39.5H24.2c-0.5,0-1,0.4-1,0.9s0.4,0.9,1,0.9h19.2c0.5,0,0.9-0.4,0.9-0.9S44,39.5,43.5,39.5"/>
	<path class="st2" d="M49.3,45c0,4.4,3.6,8,8,8c4.4,0,8-3.6,8-8c0-4.4-3.6-8-8-8C52.8,37,49.3,40.6,49.3,45"/>
</g>
</svg>
