<?xml version="1.0" encoding="utf-8"?>
<!-- Generator: Adobe Illustrator 19.1.0, SVG Export Plug-In . SVG Version: 6.00 Build 0)  -->
<svg version="1.1" id="Layer_1" xmlns="http://www.w3.org/2000/svg" xmlns:xlink="http://www.w3.org/1999/xlink" x="0px" y="0px"
	 viewBox="0 0 64.3 60" style="enable-background:new 0 0 64.3 60;" xml:space="preserve">
<style type="text/css">
	.st0{fill:#61B63D;}
	.st1{fill:#4995EC;}
	.st2{clip-path:url(#SVGID_2_);fill:#444B54;}
</style>
<polygon class="st0" points="54.7,50.9 50.5,55.1 54.1,58.8 58.8,54.6 "/>
<polygon class="st1" points="36,32.3 32,36 48.6,53.6 53.5,48.8 "/>
<g>
	<defs>
		<rect id="SVGID_1_" width="64.3" height="60"/>
	</defs>
	<clipPath id="SVGID_2_">
		<use xlink:href="#SVGID_1_"  style="overflow:visible;"/>
	</clipPath>
	<path class="st2" d="M59,17.2c-0.6,0-1,0.5-1,1v8.6c0,0.6,0.5,1,1,1c0.6,0,1-0.4,1-1v-8.6C60,17.6,59.5,17.2,59,17.2"/>
	<path class="st2" d="M63.3,0h-8.6H1C0.5,0,0,0.5,0,1v43c0,0.6,0.5,1,1,1h37.7l14.7,14.7c0.2,0.2,0.5,0.3,0.7,0.3
		c0.3,0,0.5-0.1,0.7-0.3l4.6-4.6c0.4-0.4,0.4-1,0-1.4L50.6,45h4.1h8.6c0.6,0,1-0.5,1-1V1C64.3,0.5,63.8,0,63.3,0 M57.2,54.4
		l-3.1,3.1L39.8,43.2l-7-7l3.1-3.1l11.6,11.6L57.2,54.4z M25.9,27.6l1.8,3.6h-4.2v-7.7h4.4h3.3v4.7l-3.9-2c-0.4-0.2-0.9-0.1-1.2,0.2
		C25.8,26.7,25.7,27.2,25.9,27.6 M31.7,30.7l2.5,1.2l-2.6,2.6l-1.4-2.8L29,29.4L31.7,30.7z M53.7,43h-5.1l-12-12c0,0,0,0,0,0
		c0,0,0,0,0,0c0,0,0,0,0,0c0,0,0,0,0,0c0,0,0,0,0,0c0,0,0,0,0,0c0,0,0,0-0.1,0c0,0,0,0,0,0l-3.2-1.6v-6.7c0-0.6-0.5-1-1-1h-3.3v-2.3
		H44v2.3h-4.4c-0.6,0-1,0.5-1,1v9.7c0,0.6,0.5,1,1,1h9.7c0.6,0,1-0.4,1-1v-9.7c0-0.6-0.5-1-1-1H46v-3.3c0-0.6-0.5-1-1-1H28.9v-0.7h6
		c0.6,0,1-0.5,1-1V4.8c0-0.6-0.5-1-1-1H21.4c-0.6,0-1,0.5-1,1v10.7c0,0.6,0.5,1,1,1h5.4v0.7H9.6c-0.6,0-1,0.5-1,1v3.3H5.3
		c-0.6,0-1,0.4-1,1v9.7c0,0.6,0.5,1,1,1H15c0.6,0,1-0.4,1-1v-9.7c0-0.6-0.4-1-1-1h-4.4v-2.3h16.2v2.3h-4.4c-0.6,0-1,0.4-1,1v9.7
		c0,0.6,0.5,1,1,1h6.2l1.8,3.5c0,0,0,0,0,0c0,0,0,0.1,0.1,0.1c0,0,0,0,0,0c0,0,0,0.1,0.1,0.1c0,0,0,0,0,0c0,0,0,0,0,0l6,6H2V2h51.7
		V43z M22.4,5.8h11.4v8.7H22.4V5.8z M48.3,31.1h-7.7v-7.7h7.7V31.1z M14,31.1H6.3v-7.7H14V31.1z M62.3,43h-6.6V2h6.6V43z"/>
</g>
</svg>
