<svg width="70" height="60" viewBox="0 0 70 60" xmlns="http://www.w3.org/2000/svg" xmlns:xlink="http://www.w3.org/1999/xlink"><title>icon-photo&amp;video</title><defs><path d="M15.066 14.06c1.068-.27 2.3-1.31 2.746-2.306l1.38-3.094C20.097 6.64 22.62 5 24.823 5h20.846c2.21 0 4.653 1.673 5.454 3.735l1.156 2.977c.4 1.027 1.588 2.078 2.656 2.347l7.312 1.842C66.53 16.982 70 21.44 70 25.854v24.15C70 58.283 63.288 65 55.005 65h-40.01C6.715 65 0 58.283 0 50.003v-24.15c0-4.415 3.48-8.873 7.754-9.95l7.312-1.844z" id="a"/></defs><g transform="translate(0 -5)" fill="none" fill-rule="evenodd"><mask id="b" fill="#fff"><use xlink:href="#a"/></mask><path stroke="#75767A" stroke-width="2" d="M15.31 15.03c1.363-.345 2.844-1.59 3.415-2.87l1.38-3.092C20.85 7.408 23.013 6 24.822 6H45.67c1.798 0 3.87 1.42 4.522 3.097l1.156 2.977c.516 1.328 1.962 2.606 3.343 2.955L62 16.87C65.84 17.84 69 21.897 69 25.854v24.15C69 57.733 62.735 64 55.005 64h-40.01C7.267 64 1 57.732 1 50.003v-24.15c0-3.954 3.166-8.015 6.998-8.98l7.313-1.844z"/><rect stroke="#FF6300" stroke-width="2" mask="url(#b)" x="26" y="14" width="18" height="1" rx=".5"/><circle stroke="#75767A" stroke-width="2" mask="url(#b)" cx="35" cy="40" r="15"/><circle fill="#F16624" mask="url(#b)" cx="35" cy="40" r="4"/></g></svg>