<svg xmlns="http://www.w3.org/2000/svg" viewBox="0 0 98.66 79.35"><defs><style>.cls-1{fill:#444b54;}.cls-2{fill:#61b63d;}.cls-3{fill:#4995ec;}</style></defs><title>Asset 7</title><g id="Layer_2" data-name="Layer 2"><g id="Layer_1-2" data-name="Layer 1"><path class="cls-1" d="M50.42,64.34V11.44a1.09,1.09,0,0,0-2.18,0V64.34a1.09,1.09,0,1,0,2.18,0Z"/><path class="cls-1" d="M97.57,6.36a1.09,1.09,0,0,0-1.09,1.09V74.54H55.42a2.05,2.05,0,0,0-1.65.84l-1.54,1.79H46.42l-1.51-1.77a2.08,2.08,0,0,0-1.67-.87H2.18V7.45A1.09,1.09,0,0,0,0,7.45V75.63a1.09,1.09,0,0,0,1.09,1.09H43.17L45.09,79a1.09,1.09,0,0,0,.83.38h6.82a1.09,1.09,0,0,0,.83-.38l1.93-2.25H97.57a1.09,1.09,0,0,0,1.09-1.09V7.45A1.09,1.09,0,0,0,97.57,6.36Z"/><path class="cls-1" d="M55.42,70.36H91.21a1.09,1.09,0,0,0,1.09-1.09V1.09A1.09,1.09,0,0,0,91.21,0H55.42a8.36,8.36,0,0,0-5.75,2.28l-.34.32L49,2.28A8.36,8.36,0,0,0,43.24,0H7.45A1.09,1.09,0,0,0,6.36,1.09V69.27a1.09,1.09,0,0,0,1.09,1.09H43.24a6.22,6.22,0,0,1,5.19,2.78,1.13,1.13,0,0,0,1.82,0A6.21,6.21,0,0,1,55.42,70.36Zm-5.75.09-.34.32L49,70.45a8.37,8.37,0,0,0-5.75-2.27H8.54v-66h34.7A6.21,6.21,0,0,1,48.42,5a1.13,1.13,0,0,0,1.82,0,6.21,6.21,0,0,1,5.18-2.78h34.7v66H55.42A8.37,8.37,0,0,0,49.67,70.45Z"/><path class="cls-1" d="M40.85,8.48H15.93a1.09,1.09,0,0,0,0,2.18H40.85a1.09,1.09,0,0,0,0-2.18Z"/><path class="cls-1" d="M40.85,14.84H15.93a1.09,1.09,0,0,0,0,2.18H40.85a1.09,1.09,0,0,0,0-2.18Z"/><path class="cls-1" d="M40.85,21.2H15.93a1.09,1.09,0,0,0,0,2.18H40.85a1.09,1.09,0,0,0,0-2.18Z"/><path class="cls-1" d="M40.85,27.57H15.93a1.09,1.09,0,0,0,0,2.18H40.85a1.09,1.09,0,1,0,0-2.18Z"/><path class="cls-1" d="M40.85,33.93H15.93a1.09,1.09,0,0,0,0,2.18H40.85a1.09,1.09,0,0,0,0-2.18Z"/><path class="cls-1" d="M28.39,40.29H15.93a1.09,1.09,0,0,0,0,2.18H28.39a1.09,1.09,0,0,0,0-2.18Z"/><path class="cls-2" d="M40.85,46.65H15.93a1.09,1.09,0,0,0-1.09,1.09v13a1.09,1.09,0,0,0,1.09,1.09H40.85a1.09,1.09,0,0,0,1.09-1.09v-13A1.09,1.09,0,0,0,40.85,46.65Zm-1.09,13H17V48.83H39.76Z"/><path class="cls-1" d="M80.61,34.25H55.69a1.09,1.09,0,0,0,0,2.18H80.61a1.09,1.09,0,0,0,0-2.18Z"/><path class="cls-1" d="M80.61,40.61H55.69a1.09,1.09,0,0,0,0,2.18H80.61a1.09,1.09,0,0,0,0-2.18Z"/><path class="cls-1" d="M80.61,47H55.69a1.09,1.09,0,0,0,0,2.18H80.61a1.09,1.09,0,0,0,0-2.18Z"/><path class="cls-1" d="M80.61,53.34H55.69a1.09,1.09,0,0,0,0,2.18H80.61a1.09,1.09,0,0,0,0-2.18Z"/><path class="cls-1" d="M55.69,59.7a1.09,1.09,0,0,0,0,2.18H68.15a1.09,1.09,0,1,0,0-2.18Z"/><path class="cls-3" d="M81.7,29a1.09,1.09,0,0,0-1.09-1.09,9.13,9.13,0,0,1-3.78-.77l-.3-.13V11.57l.3-.13a9.12,9.12,0,0,1,3.78-.77,1.09,1.09,0,0,0,0-2.18A11,11,0,0,0,75,9.93l-.2.11a21.06,21.06,0,0,0-6.24,6.6l-.42.62-.42-.62c-1.58-2.36-3.55-5-6.22-6.58l-.19-.11a11.09,11.09,0,0,0-5.63-1.47,1.09,1.09,0,1,0,0,2.18,9.12,9.12,0,0,1,3.78.77l.3.13V27l-.3.13a9.12,9.12,0,0,1-3.78.77,1.09,1.09,0,0,0,0,2.18,11,11,0,0,0,5.6-1.45l.2-.11a21.06,21.06,0,0,0,6.25-6.6l.42-.62.42.62c1.58,2.36,3.55,5,6.21,6.58l.2.12a11.1,11.1,0,0,0,5.63,1.46A1.09,1.09,0,0,0,81.7,29Zm-15-9.43a33.11,33.11,0,0,1-3.87,5.17l-.86.87V13l.86.87A33,33,0,0,1,66.68,19l.18.27Zm7.67,6-.86-.87a33.09,33.09,0,0,1-3.87-5.17l-.18-.27.18-.27a33.09,33.09,0,0,1,3.87-5.17l.86-.87Z"/></g></g></svg>