<svg xmlns="http://www.w3.org/2000/svg" viewBox="0 0 81.06 79.68"><defs><style>.cls-1{fill:#444b54;}.cls-2{fill:#61b63d;}.cls-3{fill:#4995ec;}</style></defs><title>Asset 11</title><g id="Layer_2" data-name="Layer 2"><g id="Layer_1-2" data-name="Layer 1"><path class="cls-1" d="M31.91,34h5.36a.94.94,0,0,0,.94-.94V25a.94.94,0,0,0-.94-.94H31.91A.94.94,0,0,0,31,25v8A.94.94,0,0,0,31.91,34Zm.94-8h3.48v6.16H32.85Z"/><path class="cls-1" d="M66.73,66.16h5.36a.94.94,0,0,0,.94-.94v-8a.94.94,0,0,0-.94-.94H66.73a.94.94,0,0,0-.94.94v8A.94.94,0,0,0,66.73,66.16Zm.94-8h3.48v6.16H67.67Z"/><path class="cls-1" d="M9.54,43.79a.94.94,0,1,0,1.88,0V42.06H14.9v7.1a.94.94,0,1,0,1.88,0v-8a.94.94,0,0,0-.94-.94H10.48a.94.94,0,0,0-.94.94Z"/><path class="cls-1" d="M66.73,34h5.36a.94.94,0,0,0,.94-.94V25a.94.94,0,0,0-.94-.94H66.73a.94.94,0,0,0-.94.94v8A.94.94,0,0,0,66.73,34Zm.94-8h3.48v6.16H67.67Z"/><path class="cls-1" d="M10.48,34h5.36a.94.94,0,0,0,.94-.94V25a.94.94,0,0,0-.94-.94H10.48a.94.94,0,0,0-.94.94v8A.94.94,0,0,0,10.48,34Zm.94-8H14.9v6.16H11.42Z"/><path class="cls-1" d="M45.3,34h5.36a.94.94,0,0,0,.94-.94V25a.94.94,0,0,0-.94-.94H45.3a.94.94,0,0,0-.94.94v8A.94.94,0,0,0,45.3,34Zm.94-8h3.48v6.16H46.24Z"/><path class="cls-1" d="M80.12,16.07H60a.92.92,0,0,0-.4.1V.94A.94.94,0,0,0,58.69,0H23.87a.94.94,0,0,0-.94.94V16.07H2.45a.94.94,0,0,0-.94.94V43.79a.94.94,0,1,0,1.88,0V17.95H22.94V77.76H8.74v-6.3l.32-.07a6.32,6.32,0,0,0,5-6.17c0-.12-.07-12.13-3.85-15.92A3.35,3.35,0,0,0,7.8,48.21c-5.17,0-6.3,12.28-6.3,17a6.32,6.32,0,0,0,5,6.17l.32.07v6.3H1a1,1,0,1,0,0,1.92H77.32a3.84,3.84,0,0,0,3.74-3.74V17A.94.94,0,0,0,80.12,16.07ZM3.39,65.22c0-6.32,1.68-15.13,4.42-15.13s4.42,8.81,4.42,15.13a4.42,4.42,0,1,1-8.83,0ZM24.81,1.88H57.75V77.76H48.92V58.13h4.42a.94.94,0,1,0,0-1.88H29.23a.94.94,0,0,0,0,1.88h4.42V77.76H24.81ZM47,77.76H35.53V58.13H47Zm30.4-.08H66.73a1.74,1.74,0,1,1,0-3.48,1.72,1.72,0,0,1,.94.28,1,1,0,0,0,.86.08.94.94,0,0,0,.56-.66,3.07,3.07,0,0,1,6,0,.94.94,0,0,0,1.42.58,1.7,1.7,0,0,1,1.76,0,1.72,1.72,0,0,1-.81,3.24Zm1.74-4.94-.53-.19a3.46,3.46,0,0,0-1.82-.17l-.28.05-.14-.25a4.95,4.95,0,0,0-8.64,0l-.14.25-.28-.05a3.52,3.52,0,0,0-.62-.05,3.62,3.62,0,0,0-3.62,3.62,3.58,3.58,0,0,0,.51,1.82h-4V17.85a.92.92,0,0,0,.4.1H79.18Z"/><path class="cls-1" d="M45.3,17.95h5.36A.94.94,0,0,0,51.6,17V9A.94.94,0,0,0,50.66,8H45.3a.94.94,0,0,0-.94.94v8A.94.94,0,0,0,45.3,17.95Zm.94-8h3.48v6.16H46.24Z"/><path class="cls-1" d="M45.3,50.09h5.36a.94.94,0,0,0,.94-.94v-8a.94.94,0,0,0-.94-.94H45.3a.94.94,0,0,0-.94.94v8A.94.94,0,0,0,45.3,50.09Zm.94-8h3.48v6.16H46.24Z"/><path class="cls-1" d="M31.91,17.95h5.36a.94.94,0,0,0,.94-.94V9A.94.94,0,0,0,37.27,8H31.91A.94.94,0,0,0,31,9v8A.94.94,0,0,0,31.91,17.95Zm.94-8h3.48v6.16H32.85Z"/><path class="cls-1" d="M42,67.55a1,1,0,0,0,.26-.66,1,1,0,0,0-.28-.68.95.95,0,0,0-1.32,1.35A1,1,0,0,0,42,67.55Z"/><path class="cls-1" d="M42,70.55a1,1,0,0,0,.26-.66,1,1,0,0,0-.28-.68.95.95,0,0,0-1.32,1.35A1,1,0,0,0,42,70.55Z"/><path class="cls-1" d="M31.91,50.09h5.36a.94.94,0,0,0,.94-.94v-8a.94.94,0,0,0-.94-.94H31.91a.94.94,0,0,0-.94.94v8A.94.94,0,0,0,31.91,50.09Zm.94-8h3.48v6.16H32.85Z"/><path class="cls-1" d="M66.73,50.09h5.36a.94.94,0,0,0,.94-.94v-8a.94.94,0,0,0-.94-.94H66.73a.94.94,0,0,0-.94.94v8A.94.94,0,0,0,66.73,50.09Zm.94-8h3.48v6.16H67.67Z"/><rect class="cls-2" x="26.32" y="3.53" width="29.83" height="1.93"/><rect class="cls-3" x="36.86" y="59.62" width="8.62" height="3.92"/></g></g></svg>