<svg xmlns="http://www.w3.org/2000/svg" viewBox="0 0 57.19 79.45"><defs><style>.cls-1{fill:#61b63d;}.cls-2{fill:#444b54;}.cls-3{fill:#4995ec;}</style></defs><title>Asset 10</title><g id="Layer_2" data-name="Layer 2"><g id="Layer_1-2" data-name="Layer 1"><path class="cls-1" d="M27.26,28H38.12a10.3,10.3,0,1,0-10.85,5.31Z"/><path class="cls-2" d="M57,11.44a1,1,0,0,0-.17-1.3L44.95.23A1,1,0,0,0,44.32,0H12.87a1,1,0,0,0-.62.23L.35,10.14a1,1,0,0,0-.17,1.3L7,21.08a1,1,0,0,0,1.22.31l3.7-1.85V42.78a1,1,0,0,0,1,1H22.95a1,1,0,0,0,0-1.93H13.83V1.93H20l.06.38a8.62,8.62,0,0,0,17,0l.06-.38h6.19V24.08a1,1,0,0,0,1.93,0V19.53L49,21.38a1,1,0,0,0,1.22-.31ZM11.9,17.37,8.08,19.28,2.27,11.06,11.9,3ZM35.1,2.49a6.68,6.68,0,0,1-13,0L22,1.93H35.23Zm14,16.8-3.82-1.91V3l9.63,8Z"/><path class="cls-2" d="M56,27.59H27.5a1,1,0,0,0-1,1V78.49a1,1,0,0,0,1,1H38.41a1,1,0,0,0,1-.91L41.3,44h.9l1.92,34.52a1,1,0,0,0,1,.91H56a1,1,0,0,0,1-1V28.56a1,1,0,0,0-1-1Zm-6.33,1.93H55V33.6H49.66Zm-13.88,0h12V33.6h-12Zm-7.3,0h5.37V33.6H28.47ZM55,77.52H46L44,42.45a1,1,0,0,0-1-.91H40.41a1,1,0,0,0-1,.91L37.5,77.52h-9v-42H55Z"/><rect class="cls-3" x="36.99" y="30.52" width="9.59" height="2.03"/></g></g></svg>