<svg width="50" height="77" viewBox="0 0 50 77" xmlns="http://www.w3.org/2000/svg" xmlns:xlink="http://www.w3.org/1999/xlink"><title>E5D52E0D-CDF1-43E9-9FC6-4DFD3F3731D4</title><defs><rect id="a" x="14" y="19" width="46" height="54" rx="10"/><mask id="b" x="0" y="0" width="46" height="54" fill="#fff"><use xlink:href="#a"/></mask></defs><g transform="translate(-14 -8)" fill="none" fill-rule="evenodd"><path d="M22 19.286v-3.722c0-2.205 1.71-4.488 3.865-5.038C25.865 10.526 30.077 9 37 9s11.135 1.526 11.135 1.526C50.27 11.103 52 13.36 52 15.564v3.722M22 73v3.722c0 2.205 1.71 4.488 3.865 5.038 0 0 4.212 1.526 11.135 1.526s11.135-1.526 11.135-1.526C50.27 81.183 52 78.925 52 76.722V73" stroke="#75767A" stroke-width="2" stroke-linecap="square"/><use stroke="#75767A" mask="url(#b)" stroke-width="4" xlink:href="#a"/><path d="M63 31v8" stroke="#FF6300" stroke-width="2" stroke-linecap="square"/><path d="M63 51v12" stroke="#75767A" stroke-width="2" stroke-linecap="square"/><path stroke="#FF6300" stroke-width="2" stroke-dasharray="2,4" d="M16 49.5h9L31 35l8.75 23L49 43h9"/></g></svg>