<svg width="73" height="79" viewBox="0 0 73 79" xmlns="http://www.w3.org/2000/svg" xmlns:xlink="http://www.w3.org/1999/xlink"><title>icon-food&amp;drink</title><defs><path d="M21 62.97h50v6c0 3.315-2.688 6-6.006 6H27.006a6.007 6.007 0 0 1-6.006-6v-6zM21 57v-5.703c0-3.862 2.973-7.977 6.64-9.18 0 0 7.19-3.117 18.36-3.117 11.17 0 18.348 3.114 18.348 3.114C68.048 43.26 71 47.43 71 51.297V57H21z" id="a"/></defs><g transform="translate(0 2)" fill="none" fill-rule="evenodd"><path d="M1.424 18.88C1.256 17.272 2.402 16 4.007 16h44.288c1.596 0 2.672 1.24 2.452 2.822l-7.26 52.08C43.25 72.594 41.637 74 39.933 74H10.278c-1.693 0-3.237-1.394-3.414-3.087L1.424 18.88z" stroke="#75767A" stroke-width="2"/><path d="M45 30H3" stroke="#75767A" stroke-width="2" stroke-linecap="square" stroke-dasharray="2,5"/><path d="M26 24V6.994c0-1.653 1.327-3.235 2.944-3.53L48 0" stroke="#75767A" stroke-width="2" stroke-linecap="square"/><use fill="#23252C" xlink:href="#a"/><path stroke="#75767A" stroke-width="2" d="M22 63.97h48v5c0 2.763-2.24 5-5.006 5H27.006a5.007 5.007 0 0 1-5.006-5v-5zM22 56v-4.703c0-3.432 2.697-7.162 5.95-8.23.132-.05.23-.092.384-.152.26-.1.57-.215.93-.34a40.942 40.942 0 0 1 3.604-1.045C36.786 40.574 41.196 40 46 40s9.212.574 13.126 1.53c1.365.332 2.57.688 3.6 1.043a24.635 24.635 0 0 1 1.224.458l.1.04C67.3 44.075 70 47.83 70 51.296V56H22z"/><path stroke="#23252C" stroke-width="2" d="M21 61.97h-1v7c0 3.863 3.14 7 7.006 7h37.988a7.003 7.003 0 0 0 7.006-7v-7H21zm43.695-20.795c-.257-.11-.7-.28-1.318-.493a42.827 42.827 0 0 0-3.777-1.096C55.537 38.594 50.97 38 46 38c-4.97 0-9.54.595-13.606 1.587a42.93 42.93 0 0 0-3.782 1.098 20.66 20.66 0 0 0-1.37.515C23.25 42.504 20 47 20 51.297V58h52v-6.703c0-4.315-3.236-8.83-7.305-10.122z"/><rect fill="#FF6300" x="20" y="59" width="53" height="2" rx="1"/></g></svg>