<svg xmlns="http://www.w3.org/2000/svg" viewBox="0 0 77.35 79.54"><defs><style>.cls-1{fill:#61b63d;}.cls-2{fill:#444b54;}.cls-3{fill:#4995ec;}</style></defs><title>Asset 1</title><g id="Layer_2" data-name="Layer 2"><g id="Layer_1-2" data-name="Layer 1"><path class="cls-1" d="M38.68,46.67l-8.76-8.44A5.6,5.6,0,0,1,32.05,34c2.13-1.54,6.62.26,6.62.26S43,31.58,45.85,34s.89,4.49.89,4.49Z"/><path class="cls-2" d="M71.77,57.63a4.16,4.16,0,0,0-4.87-4.1L39,58.38l-8-8a1,1,0,0,0-.7-.29H15.95v-.4a1,1,0,0,0-1-1H0v2H8.37V71H0v2H15a1,1,0,0,0,1-1v-.4l4.44,0L35.3,79.11a4.21,4.21,0,0,0,4-.13L69.71,61.22A4.17,4.17,0,0,0,71.77,57.63ZM14,71H10.37V50.67H14ZM68.7,59.5,38.26,77.27a2.16,2.16,0,0,1-2.06.06L21,69.72a1,1,0,0,0-.45-.11H15.95V52.07H29.89L41,63.18a3,3,0,0,1-4.17,4.17l-6.94-6.94-1.41,1.41,6.93,6.94a4.94,4.94,0,0,0,7-7L40.74,60.1l26.5-4.61A2.14,2.14,0,0,1,69,56a2.17,2.17,0,0,1-.3,3.53Z"/><path class="cls-2" d="M38.34,21l8,8.23c.2.2.51.5.7.5H61.27l.11.24c.21.47.68,1.16,1,1.16h15v-2H69V8.81h8.37v-2h-15c-.76,0-1,0-1,1v.4L57,8.17,42,.49a4.14,4.14,0,0,0-4,0L7.65,18.22A4.12,4.12,0,0,0,7.06,25a4.19,4.19,0,0,0,3.39.9ZM63.4,8.81H67V29.14H63.4ZM8.35,23.42a2.17,2.17,0,0,1,.3-3.54L39.1,2.12a2.17,2.17,0,0,1,2.06-.07L56.38,9.88a1.68,1.68,0,0,1,.28.19,1.06,1.06,0,0,0,.19.13h4.56V27.75H47.46L36.35,16.42a3.2,3.2,0,0,1-.86-2.19,3,3,0,0,1,3-3,2.92,2.92,0,0,1,2.09.84L47.46,19l1.41-1.41-6.93-6.94a4.94,4.94,0,1,0-7,7l1.67,1.67L10.12,23.9A2.18,2.18,0,0,1,8.35,23.42Z"/><path class="cls-2" d="M46.43,40.88a5.09,5.09,0,0,0,0-7.43,5.6,5.6,0,0,0-7.49-.15l-.26.23-.26-.23a5.6,5.6,0,0,0-7.5.15,5.08,5.08,0,0,0,0,7.43L38,47.61a1,1,0,0,0,1.37,0ZM32.29,39.43a3.1,3.1,0,0,1,0-4.54,3.69,3.69,0,0,1,4.91,0l.79.75a1,1,0,0,0,1.37,0l.79-.75a3.61,3.61,0,0,1,4.91,0,3.09,3.09,0,0,1,0,4.54h0l-6.39,6.08Z"/><path class="cls-3" d="M22.48,29l-2.31-1.56A22.48,22.48,0,0,0,18.67,30l2.5,1.24A19.29,19.29,0,0,1,22.48,29Z"/><path class="cls-3" d="M16.81,44.48a22.25,22.25,0,0,0,.8,2.87l2.63-.93a19.59,19.59,0,0,1-.7-2.51Z"/><path class="cls-3" d="M16.76,35.61l2.74.53a19.4,19.4,0,0,1,.67-2.51l-2.64-.9A22.51,22.51,0,0,0,16.76,35.61Z"/><path class="cls-3" d="M16.35,39.91q0,.81.06,1.62l2.78-.2c0-.47,0-.95-.05-1.42s0-.79,0-1.18l-2.79-.17C16.36,39,16.35,39.46,16.35,39.91Z"/><path class="cls-3" d="M57.1,33.4a19.34,19.34,0,0,1,.7,2.51l2.73-.57a22.73,22.73,0,0,0-.8-2.87Z"/><path class="cls-3" d="M54.87,50.84l2.31,1.56a22.24,22.24,0,0,0,1.5-2.57l-2.5-1.24A19.09,19.09,0,0,1,54.87,50.84Z"/><path class="cls-3" d="M57.19,46.19l2.64.9a22.22,22.22,0,0,0,.76-2.88l-2.74-.53A19.57,19.57,0,0,1,57.19,46.19Z"/><path class="cls-3" d="M61,39.91c0-.55,0-1.09-.06-1.63l-2.78.2c0,.47.05.94.05,1.42s0,.79,0,1.18l2.79.17C61,40.81,61,40.36,61,39.91Z"/></g></g></svg>