<svg xmlns="http://www.w3.org/2000/svg" viewBox="0 0 64.79 68.23"><defs><style>.cls-1{fill:#61b63d;}.cls-2{fill:#4995ec;}.cls-3{fill:#505358;}.cls-4{fill:#444b54;}</style></defs><title>Asset 5</title><g id="Layer_2" data-name="Layer 2"><g id="Layer_1-2" data-name="Layer 1"><path class="cls-1" d="M31.64,20.05,32,24.62l10.64.2s3.06.68,3.06,2.79S43,31.71,43,31.71H32l-.34,4.77L44,36.26s5.46,2,5,6.09-4.4,5.25-4.4,5.25H32l-.34,4.29,13.7.48s8.26-2.25,8.25-10c0-4.58-4.84-8.93-4.84-8.93s2.66-6.27.27-9.07a18.21,18.21,0,0,0-5.86-4.29Z"/><polygon class="cls-2" points="31.64 27.28 23.87 27.28 12.63 55.84 16.38 57.41 21.08 45 31.64 45.89 31.64 40.64 23.53 40.71 26.19 31.51 31.64 31.71 31.64 27.28"/><path class="cls-3" d="M4.37,14.74A1.07,1.07,0,0,0,3.3,15.81V17a1.07,1.07,0,0,0,2.15,0V15.81A1.07,1.07,0,0,0,4.37,14.74Z"/><path class="cls-4" d="M31.83,68.23a.94.94,0,0,0,.94-.94V56.79H63.86a.94.94,0,0,0,.94-.94V5.51a.94.94,0,0,0-.94-.94H32.76V.94a.94.94,0,0,0-1.88,0v10.5H.94a.94.94,0,0,0-.94.94V62.71a.94.94,0,0,0,.94.94H30.89v3.64A.94.94,0,0,0,31.83,68.23Zm.94-61.77H62.92v6.13H32.76Zm0,19.16h9.36a2.64,2.64,0,1,1,0,5.27H32.76Zm0,11.44h10.5a4.92,4.92,0,0,1,0,9.85H32.76Zm0,11.73h10.5a6.8,6.8,0,0,0,0-13.6H32.76V32.76h9.36a4.51,4.51,0,1,0,0-9H32.76V21.32h9.36A6.93,6.93,0,0,1,49,28.25a6.85,6.85,0,0,1-1.51,4.31A.94.94,0,0,0,47.8,34a9.21,9.21,0,0,1-4.54,17.23H32.76Zm0,4.29h10.5A11.09,11.09,0,0,0,49.7,33l-.1-.07.06-.11a8.8,8.8,0,0,0-7.54-13.33H32.76v-5H62.92V54.91H32.76ZM30.89,40H24.26l2.84-7.56h3.79Zm0-9.44H26.45a.94.94,0,0,0-.88.61L22,40.65a.94.94,0,0,0,.88,1.27h8v2.41H21.3a.94.94,0,0,0-.88.61l-4.3,11.46-2.26-.85,0-.13L23.83,29A1.21,1.21,0,0,1,25,28.19h5.93Zm-29-17.29h29v6.13h-29Zm0,48.46V21.32h29v5H25a3.1,3.1,0,0,0-2.89,2L11.78,55.77a1,1,0,0,0,0,.72.93.93,0,0,0,.52.49l4,1.51a1,1,0,0,0,1.21-.55l4.4-11.73h8.94V61.77Z"/><path class="cls-3" d="M60.42,7.87a1.07,1.07,0,0,0-1.07,1.07v1.14a1.07,1.07,0,1,0,2.15,0V8.95A1.07,1.07,0,0,0,60.42,7.87Z"/></g></g></svg>