<svg width="70" height="70" viewBox="0 0 70 70" xmlns="http://www.w3.org/2000/svg" xmlns:xlink="http://www.w3.org/1999/xlink"><title>F9AFB7BF-3890-4E4A-85F8-013FB11A6E4F</title><defs><circle id="a" cx="15" cy="15" r="15"/><mask id="b" x="0" y="0" width="30" height="30" fill="#fff"><use xlink:href="#a"/></mask></defs><g fill="none" fill-rule="evenodd"><path d="M55 54s0 15-18.736 15C17.53 69 15.532 55.915 15.532 55.915c-.294-1.058-.532-2.812-.532-3.92V30" stroke="#75767A" stroke-width="2" stroke-linecap="square"/><use stroke="#75767A" mask="url(#b)" stroke-width="4" xlink:href="#a"/><path d="M69 33v9.99c0 1.11-.35 2.84-.86 3.81 0 0-2.14 7.2-13.14 7.2s-13.99-7.275-13.99-7.275C40.45 45.772 40 44.098 40 42.99V33" stroke="#75767A" stroke-width="2" stroke-linecap="square"/><circle fill="#FF6300" cx="66" cy="32" r="4"/><circle fill="#FF6300" cx="43" cy="32" r="4"/><path d="M19 15h-8M15 11v8" stroke="#FF6300" stroke-width="2" stroke-linecap="square"/></g></svg>