<?xml version="1.0" encoding="utf-8"?>
<!-- Generator: Adobe Illustrator 19.1.0, SVG Export Plug-In . SVG Version: 6.00 Build 0)  -->
<svg version="1.1" id="Layer_1" xmlns="http://www.w3.org/2000/svg" xmlns:xlink="http://www.w3.org/1999/xlink" x="0px" y="0px"
	 viewBox="0 0 55 60" style="enable-background:new 0 0 55 60;" xml:space="preserve">
<style type="text/css">
	.st0{clip-path:url(#SVGID_2_);fill:#4995EC;}
	.st1{clip-path:url(#SVGID_2_);fill:#61B63D;}
	.st2{clip-path:url(#SVGID_2_);fill:#444B54;}
</style>
<g>
	<defs>
		<rect id="SVGID_1_" width="55" height="60"/>
	</defs>
	<clipPath id="SVGID_2_">
		<use xlink:href="#SVGID_1_"  style="overflow:visible;"/>
	</clipPath>
	<path class="st0" d="M20.4,52.8c0,1.9-1.6,3.5-3.5,3.5s-3.5-1.6-3.5-3.5c0-1.9,1.6-3.5,3.5-3.5S20.4,50.9,20.4,52.8"/>
	<path class="st1" d="M26.3,27.6c0,5.4-4.4,9.8-9.8,9.8s-9.8-4.4-9.8-9.8s4.4-9.8,9.8-9.8S26.3,22.2,26.3,27.6"/>
	<path class="st2" d="M33,31c-0.6,0-1,0.4-1,1v14H2V8h30v14c0,0.6,0.4,1,1,1c0.6,0,1-0.4,1-1V4.4C34,2,32,0,29.6,0H4.4
		C2,0,0,2,0,4.4v51.2C0,58,2,60,4.4,60h25.2c2.4,0,4.4-2,4.4-4.4V32C34,31.4,33.6,31,33,31 M4.4,2h25.2C30.9,2,32,3.1,32,4.4V6H2
		V4.4C2,3.1,3.1,2,4.4,2 M29.6,58H4.4C3.1,58,2,56.9,2,55.6V48h30v7.6C32,56.9,30.9,58,29.6,58"/>
	<path class="st2" d="M17,49c-2.2,0-4,1.8-4,4s1.8,4,4,4s4-1.8,4-4S19.2,49,17,49 M17,55c-1.1,0-2-0.9-2-2s0.9-2,2-2
		c1.1,0,2,0.9,2,2S18.1,55,17,55"/>
	<path class="st2" d="M13,5h4c0.6,0,1-0.4,1-1c0-0.6-0.4-1-1-1h-4c-0.6,0-1,0.4-1,1C12,4.6,12.4,5,13,5"/>
	<path class="st2" d="M20,5h1c0.6,0,1-0.4,1-1c0-0.6-0.4-1-1-1h-1c-0.6,0-1,0.4-1,1C19,4.6,19.4,5,20,5"/>
	<path class="st2" d="M54.9,27.4c0.1-0.2,0.1-0.5,0-0.8c-0.1-0.1-0.1-0.2-0.2-0.3l-12-12c-0.4-0.4-1-0.4-1.4,0c-0.4,0.4-0.4,1,0,1.4
		L51.6,26H16c-0.6,0-1,0.4-1,1c0,0.6,0.4,1,1,1h35.6L41.3,38.3c-0.4,0.4-0.4,1,0,1.4c0.2,0.2,0.5,0.3,0.7,0.3s0.5-0.1,0.7-0.3l12-12
		C54.8,27.6,54.9,27.5,54.9,27.4"/>
</g>
</svg>
