<svg width="70" height="70" viewBox="0 0 70 70" xmlns="http://www.w3.org/2000/svg"><title>icon-nfc</title><g transform="translate(1)" fill="none" fill-rule="evenodd"><rect stroke="#75767A" stroke-width="2" x="15" y="1" width="38" height="68" rx="10"/><path d="M13.196 18.153A25.897 25.897 0 0 0 7 35a25.915 25.915 0 0 0 7.405 18.172" stroke="#75767A" stroke-width="2" stroke-linecap="square" stroke-dasharray="2,5"/><path d="M15.072 6.752C5.982 12.855 0 23.23 0 35c0 11.752 5.963 22.112 15.028 28.22M53.057 63.16C62.074 57.048 68 46.717 68 35c0-11.683-5.893-21.99-14.868-28.11" stroke="#75767A" stroke-width="2" stroke-linecap="square" stroke-dasharray="2,5"/><path d="M54.06 52.685A25.908 25.908 0 0 0 61 35c0-6.394-2.308-12.25-6.137-16.777" stroke="#75767A" stroke-width="2" stroke-linecap="square" stroke-dasharray="2,5"/><circle stroke="#75767A" stroke-width="2" cx="34" cy="35" r="14"/><path d="M34 37a2 2 0 1 1 0-4 2 2 0 0 1 0 4z" stroke="#FF6300" stroke-width="4"/></g></svg>