<svg xmlns="http://www.w3.org/2000/svg" viewBox="0 0 85.09 79.35"><defs><style>.cls-1{fill:#444b54;}.cls-2{fill:#4995ec;}.cls-3{fill:#61b63d;}</style></defs><title>Asset 9</title><g id="Layer_2" data-name="Layer 2"><g id="Layer_1-2" data-name="Layer 1"><path class="cls-1" d="M0,73.05a6.31,6.31,0,0,0,6.3,6.3H78.79a6.31,6.31,0,0,0,6.3-6.3v-53H83.66V0H1.43V20.09H0ZM81.79,1.87V20.09H80.32L72.48,9.63l7.76-7.76ZM78,20.09h-5.8V12.35ZM77.6,1.87,70.52,9a.91.91,0,0,0-.1.13l-.06.11c0,.13,0,.18,0,.24l0,.15V20.09H14.78V9.55s0,0,0-.08a1.19,1.19,0,0,0,0-.17l0-.12A1.47,1.47,0,0,0,14.6,9l-.09-.14-7-7ZM3.3,1.87H4.85l7.76,7.76L4.77,20.09H3.3Zm9.61,10.48v7.74H7.11ZM1.87,22H83.22V73.05a4.44,4.44,0,0,1-4.43,4.43H6.3a4.44,4.44,0,0,1-4.43-4.43Z"/><path class="cls-1" d="M60.7,32.5a.93.93,0,0,0-1.87,0v8.61a16.28,16.28,0,1,1-32.57,0V32.5a.94.94,0,0,0-1.87,0v8.61a18.15,18.15,0,1,0,36.31,0Z"/><path class="cls-2" d="M30.57,32.5a5.24,5.24,0,0,0-10.48,0,.93.93,0,1,0,1.87,0,3.37,3.37,0,0,1,6.74,0,.94.94,0,0,0,1.87,0Z"/><path class="cls-2" d="M59.77,27.26a5.25,5.25,0,0,0-5.24,5.24.94.94,0,0,0,1.87,0,3.37,3.37,0,0,1,6.74,0,.93.93,0,1,0,1.87,0A5.25,5.25,0,0,0,59.77,27.26Z"/><circle class="cls-3" cx="33.94" cy="8.11" r="1.43"/><circle class="cls-3" cx="38.24" cy="3.8" r="1.43"/><circle class="cls-3" cx="38.24" cy="12.41" r="1.43"/><circle class="cls-3" cx="42.55" cy="8.11" r="1.43"/><circle class="cls-3" cx="25.33" cy="8.11" r="1.43"/><circle class="cls-3" cx="29.63" cy="3.8" r="1.43"/><circle class="cls-3" cx="29.63" cy="12.41" r="1.43"/><circle class="cls-3" cx="16.72" cy="8.11" r="1.43"/><circle class="cls-3" cx="12.41" cy="3.8" r="1.43"/><circle class="cls-3" cx="21.02" cy="3.8" r="1.43"/><circle class="cls-3" cx="21.02" cy="12.41" r="1.43"/><circle class="cls-3" cx="68.38" cy="8.11" r="1.43"/><circle class="cls-3" cx="72.68" cy="3.8" r="1.43"/><circle class="cls-3" cx="46.85" cy="3.8" r="1.43"/><circle class="cls-3" cx="46.85" cy="12.41" r="1.43"/><circle class="cls-3" cx="51.16" cy="8.11" r="1.43"/><circle class="cls-3" cx="59.77" cy="8.11" r="1.43"/><circle class="cls-3" cx="33.94" cy="16.72" r="1.43"/><circle class="cls-3" cx="42.55" cy="16.72" r="1.43"/><circle class="cls-3" cx="25.33" cy="16.72" r="1.43"/><circle class="cls-3" cx="16.72" cy="16.72" r="1.43"/><circle class="cls-3" cx="68.38" cy="16.72" r="1.43"/><circle class="cls-3" cx="51.16" cy="16.72" r="1.43"/><circle class="cls-3" cx="59.77" cy="16.72" r="1.43"/><circle class="cls-3" cx="55.46" cy="3.8" r="1.43"/><circle class="cls-3" cx="64.07" cy="3.8" r="1.43"/><circle class="cls-3" cx="55.46" cy="12.41" r="1.43"/><circle class="cls-3" cx="64.07" cy="12.41" r="1.43"/></g></g></svg>