<svg xmlns="http://www.w3.org/2000/svg" viewBox="0 0 64.16 79.75"><defs><style>.cls-1{fill:#61b63d;}.cls-2{fill:#444b54;}.cls-3{fill:#4995ec;}</style></defs><title>Asset 6</title><g id="Layer_2" data-name="Layer 2"><g id="Layer_1-2" data-name="Layer 1"><path class="cls-1" d="M30.93,21.24A12.61,12.61,0,1,0,44.68,32.62,12.61,12.61,0,0,0,30.93,21.24Zm0,18.6-6.27-5.19,1.63-1.83,4.25,3.6,6.65-8.06L39.09,30Z"/><path class="cls-2" d="M32.91,79.43a45.71,45.71,0,0,0,15.24-9A46.53,46.53,0,0,0,64.07,36.07c.12-4.51.1-9.1.07-13.54,0-2,0-4,0-6.07,0-.1,0-.2,0-.31H62.79A15,15,0,0,1,48.45,4.59,19.61,19.61,0,0,1,48,1.25C48,.83,48,.41,48,0H16.18c0,.38,0,.77-.07,1.15a18.26,18.26,0,0,1-.35,3.13,15,15,0,0,1-15,11.88H0v6q0,6.29,0,12.59a48.08,48.08,0,0,0,1.6,12.4,47.15,47.15,0,0,0,10.3,19.17A46.31,46.31,0,0,0,27.21,77.74c1.08.5,2.2,1,3.29,1.41l1.47.61h.19l.19-.08C32.53,79.59,32.72,79.5,32.91,79.43Zm-.82-2a1.59,1.59,0,0,1-.56-.1A45,45,0,0,1,5.44,52,43.76,43.76,0,0,1,2.1,35.1c0-3.88,0-7.75,0-11.63V19.1c0-.13,0-.27,0-.39l0-.36.22,0,1.18-.24a18.3,18.3,0,0,0,2.4-.57C13,15.15,17,10.25,18.11,2.94c0-.32.13-.87.89-.87H45.36a.71.71,0,0,1,.25.05l.17.06.07.19c1.48,9.22,6.68,14.42,15.9,15.91l.23,0,0,.33A2.63,2.63,0,0,1,62,19q0,2.51,0,5c0,3.76,0,7.64,0,11.46A44.6,44.6,0,0,1,49.54,66.16a44.14,44.14,0,0,1-17,11.17A1.35,1.35,0,0,1,32.08,77.41Z"/><path class="cls-2" d="M5.83,21c-.41.11-.47.19-.47.6,0,2.83,0,5.65,0,8.48q0,2.47,0,4.94A41,41,0,0,0,8.29,50.41,41.44,41.44,0,0,0,31.65,73.83a1.2,1.2,0,0,0,.8,0A41.75,41.75,0,0,0,49,62a40.06,40.06,0,0,0,9.62-23.74c.24-4,.21-8.12.18-12.09,0-1.59,0-3.18,0-4.76a.63.63,0,0,0-.28-.33c-.35-.13-.73-.24-1.09-.34s-.77-.22-1.15-.36A20.29,20.29,0,0,1,43.25,6c-.16-.58-.3-.69-.92-.69-2.53,0-5.11,0-7.59,0H29.47c-2.62,0-5.24,0-7.86,0h0c-.43,0-.53.08-.64.5C18.8,13.7,13.72,18.79,5.83,21ZM22.4,8.3a1.14,1.14,0,0,1,1.22-.86h0c2.1,0,4.2,0,6.29,0h4.51c2,0,4,0,6.05,0h0a1.17,1.17,0,0,1,1.24.92,22.28,22.28,0,0,0,14,14,1.22,1.22,0,0,1,1,1.32c0,1.62,0,3.25,0,4.87,0,3,0,6.07-.16,9.1A38.51,38.51,0,0,1,46,62.16,39,39,0,0,1,32.7,71.48a1.65,1.65,0,0,1-.64.12,1.54,1.54,0,0,1-.61-.11A39.59,39.59,0,0,1,7.46,35c0-1.8,0-3.6,0-5.4,0-2,0-4,0-6a1.12,1.12,0,0,1,.88-1.22A22.37,22.37,0,0,0,22.4,8.3Z"/><path class="cls-2" d="M32.16,20.34h-.08a13.5,13.5,0,1,0,.08,0Zm0,25H32A11.52,11.52,0,0,1,20.6,33.75a11.39,11.39,0,0,1,3.45-8.08,11.55,11.55,0,0,1,8.38-3.24,11.14,11.14,0,0,1,7.86,3.47,11.48,11.48,0,0,1-8.13,19.48Z"/><rect class="cls-3" x="21.66" y="52.62" width="19.97" height="2" rx="1" ry="1"/><rect class="cls-3" x="21.66" y="57.14" width="19.97" height="2" rx="1" ry="1"/></g></g></svg>