<?xml version="1.0" encoding="utf-8"?>
<!-- Generator: Adobe Illustrator 19.1.0, SVG Export Plug-In . SVG Version: 6.00 Build 0)  -->
<svg version="1.1" id="Layer_1" xmlns="http://www.w3.org/2000/svg" xmlns:xlink="http://www.w3.org/1999/xlink" x="0px" y="0px"
	 viewBox="0 0 41 60" style="enable-background:new 0 0 41 60;" xml:space="preserve">
<style type="text/css">
	.st0{clip-path:url(#SVGID_2_);fill:#61B63D;}
	.st1{clip-path:url(#SVGID_2_);fill:#4995EC;}
	.st2{clip-path:url(#SVGID_2_);fill:#444B54;}
</style>
<g>
	<defs>
		<rect id="SVGID_1_" width="41" height="60"/>
	</defs>
	<clipPath id="SVGID_2_">
		<use xlink:href="#SVGID_1_"  style="overflow:visible;"/>
	</clipPath>
	<path class="st0" d="M35,46.2H5.1c-1,0-1.8-0.8-1.8-1.8c0-1,0.8-1.8,1.8-1.8H35c1,0,1.8,0.8,1.8,1.8C36.8,45.4,36,46.2,35,46.2"/>
	<path class="st1" d="M37.2,57.8H2.9c-1,0-1.8-0.8-1.8-1.8c0-1,0.8-1.8,1.8-1.8h34.3c1,0,1.8,0.8,1.8,1.8C39,57,38.2,57.8,37.2,57.8
		"/>
	<path class="st2" d="M2.4,52.1C2.3,52.1,2.3,52.1,2.4,52.1c-0.8,0.4-1.9,1-2,2.7c0,0.4-0.1,0.7-0.1,1.1c-0.1,0.4-0.1,0.8-0.2,1.3
		c-0.1,0.8,0.1,1.5,0.5,2C1,59.7,1.6,60,2.5,60h0.1h34.9h0.2h0.2c0.4,0,1,0,1.5-0.5c0.7-0.5,1-1.3,0.9-2.3c-0.1-0.5-0.1-1-0.2-1.5
		c-0.1-0.5-0.1-0.9-0.2-1.4c0,0,0,0,0-0.1c-0.3-1.3-1.1-1.9-1.8-2.1c-0.8-0.2-1.4-0.9-1.5-1.8c-0.1-0.4-0.1-1.5,1-2.4
		c0.8-0.6,1.2-1.4,1.1-2.4c-0.1-0.8-0.2-1.6-0.3-2.4C38,41.8,37.1,41,35.7,41H5.1c-2.2,0-2.9,0.6-3.2,2.8c0,0,0,0.1,0,0.2
		c0,0.1,0,0.2,0,0.3v0c-0.5,1.6-0.1,3,1.2,4.2c0.6,0.5,0.8,1.2,0.7,1.9C3.6,51.1,3.1,51.8,2.4,52.1 M4.6,46.7
		c-0.7-0.6-0.8-1-0.6-1.8c0.1-0.3,0.1-0.6,0.1-0.8c0.1-0.4,0.1-0.6,0.2-0.7c0.1,0,0.3,0,0.8,0h30.6c0.1,0,0.2,0,0.2,0
		c0,0,0,0.1,0.1,0.2c0.1,0.7,0.2,1.5,0.3,2.3v0c0,0.3,0,0.3-0.2,0.4c0,0,0,0,0,0c-1.5,1.1-2.2,2.8-1.8,4.6c0.3,1.7,1.5,3,3.1,3.5
		c0.1,0,0.2,0.1,0.2,0.3c0.1,0.5,0.1,1,0.2,1.4c0.1,0.5,0.1,0.9,0.2,1.4c0,0.1,0,0.2,0,0.2c0,0,0,0,0,0c0,0-0.1,0-0.2,0h-0.2h-0.2
		H2.5c-0.2,0-0.3,0-0.3-0.1c0,0,0-0.1,0-0.3v0c0-0.4,0.1-0.7,0.1-1.1c0.1-0.4,0.1-0.8,0.2-1.3c0-0.4,0.1-0.6,0.6-0.8
		c1.5-0.6,2.5-1.9,2.8-3.4C6.2,49.2,5.7,47.7,4.6,46.7"/>
	<path class="st2" d="M13.3,51.6h13.6c0.6,0,1.1-0.5,1.1-1.1c0-0.6-0.5-1.1-1.1-1.1H13.3c-0.6,0-1.1,0.5-1.1,1.1
		C12.2,51.1,12.7,51.6,13.3,51.6"/>
	<path class="st2" d="M25.7,1.8c0.1-0.8-0.3-1.3-0.5-1.5c-0.3-0.3-0.9-0.5-1.7-0.2c-1.8,0.6-3.1,1.6-3.9,3C18.9,4.4,18,5,16.5,4.9
		C13,4.8,11,6.9,9.7,8.8c-1.7,2.4-2.6,5.2-3.1,7.6c-0.6,2.5-1,5.2-1.1,8.4c-0.1,1.3-0.1,2.6-0.1,3.8c0,0.8,0,1.7,0,2.5v0V35
		c0,1.6,1.3,2.9,2.9,2.9h16.9l7.5,0.1c1.5,0,2.7-1.2,2.7-2.7v-2.6c0-1.7-0.9-3.3-2.3-4.2c0,0,0,0,0,0c0,0-1.9-1.2-4.2-3.1
		c-0.5-0.4-1.2-0.4-1.6,0.1c-0.4,0.5-0.4,1.2,0.1,1.6c2.2,1.9,4.2,3.2,4.5,3.4c0.8,0.5,1.3,1.4,1.3,2.3v2.6c0,0.3-0.3,0.5-0.5,0.5
		l-7.5-0.1H8.2c-0.4,0-0.7-0.3-0.7-0.7v-3.9c0-0.8,0-1.7,0-2.5c0-1.2,0-2.5,0.1-3.7c0.1-3,0.5-5.6,1.1-8c0.6-2.3,1.3-4.8,2.8-6.8
		c1.5-2.1,2.9-3,4.9-2.9c2.4,0.1,4.1-0.9,5.2-3c0.4-0.7,1-1.3,1.9-1.7c-0.1,2.1,0.9,3.9,2.7,5.3c2,1.6,4,3.1,6,4.7
		c2,1.6,4,3.1,6,4.7c0.3,0.3,0.5,0.5,0.5,0.7c0,0.2-0.1,0.4-0.3,0.7l-2,2.3c-0.9,0.9-1.6,1.1-2.7,0.5c0,0,0,0,0,0
		c-0.6-0.3-1.1-0.6-1.6-0.9c0,0,0,0,0,0c-1.2-0.7-2.5-0.9-4-0.6c0,0,0,0,0,0c-1.4,0.4-2.7,0.1-4-0.9l-0.9-0.7
		c-0.5-0.4-1.2-0.3-1.6,0.2c-0.4,0.5-0.3,1.2,0.2,1.6l0.9,0.7c0,0,0,0,0,0c1.9,1.4,3.9,1.9,5.9,1.3c0.8-0.2,1.6-0.1,2.3,0.3
		c0.6,0.4,1.2,0.7,1.8,1c2,1.1,3.8,0.7,5.4-1c0,0,0,0,0,0l2-2.3c0,0,0,0,0,0c0.6-0.8,0.9-1.6,0.8-2.4s-0.5-1.5-1.4-2.1
		c-2-1.6-4-3.1-6-4.7c-2-1.6-4-3.1-6-4.7C26,4.9,25.4,3.6,25.7,1.8C25.7,1.9,25.7,1.9,25.7,1.8"/>
</g>
</svg>
