<svg xmlns="http://www.w3.org/2000/svg" viewBox="0 0 64.95 64.39"><defs><style>.cls-1{fill:#4995ec;}.cls-2{fill:#61b63d;}.cls-3{fill:#444b54;}</style></defs><title>Asset 4</title><g id="Layer_2" data-name="Layer 2"><g id="Layer_1-2" data-name="Layer 1"><polygon class="cls-1" points="2.68 48.81 12.41 58.34 9.05 60.48 1.03 52.17 2.68 48.81"/><polygon class="cls-1" points="24.95 46.12 15.1 36.56 20.02 34.7 26.97 40.41 24.95 46.12"/><polygon class="cls-2" points="47.97 20.95 40 13.53 46.28 7.22 54.81 3.33 57.85 5.87 54.25 14.44 47.97 20.95"/><path class="cls-3" d="M64.95,47.37a.88.88,0,0,0-.26-.62l-8.84-8.84a.87.87,0,0,0-.7-.25l-8.45.77a.88.88,0,0,0-.54.26l-.91.91-9.64-9.64,9.86-9.86,1.68,1.68a.91.91,0,0,0,1.25,0l6.53-6.53A.88.88,0,0,0,55.1,15l3.84-8.45a.89.89,0,0,0-.18-1L55.69,2.45a.89.89,0,0,0-1-.18L46.24,6.12A.87.87,0,0,0,46,6.3l-6.53,6.53a.88.88,0,0,0,0,1.25l1.68,1.68-9.86,9.86L25.35,19.7l.91-.91a.88.88,0,0,0,.26-.55l.77-8.45A.88.88,0,0,0,27,9.09L18.19.25a.91.91,0,0,0-1.25,0L13.1,4.09a.89.89,0,0,0,0,1.25L19.77,12l-7.2,7.2L5.9,12.55a.91.91,0,0,0-1.25,0L.8,16.39a.89.89,0,0,0,0,1.25l8.84,8.84a.88.88,0,0,0,.7.25L18.8,26a.88.88,0,0,0,.55-.26l.91-.91,5.92,5.92L22,34.87l-1.3-1.3a.88.88,0,0,0-1-.19L14.36,35.7l-.07,0-.1-.1h0l.07.11-.08.06-.11-.08.09.1,0,0L14,35.8h0l.09.1-12,12,0,0-.14,0h0L2,48,.11,51.45a.89.89,0,0,0,.15,1.05L8.71,61a.9.9,0,0,0,1.05.15l3.46-1.92.07,0,.11-.09.13.06-.1-.1L25.36,47.09l.11.08h0l-.09-.1.07-.09.06-.12v0l2.3-5.36a.88.88,0,0,0-.19-1l-1.3-1.3L30.5,35l9.64,9.64-.91.91a.89.89,0,0,0-.26.55l-.77,8.45a.88.88,0,0,0,.26.71l8.84,8.84a.91.91,0,0,0,1.25,0l3.84-3.84a.88.88,0,0,0,0-1.25l-6.68-6.68,7.2-7.2.1.1,6.58,6.58a.91.91,0,0,0,1.25,0L64.69,48A.88.88,0,0,0,64.95,47.37ZM47.14,7.65l7.73-3.51,2.21,2.21-3.54,7.77-5.78,5.78-6.43-6.43ZM42.38,17l1.82,1.82L34.34,28.7l-1.82-1.82ZM18.32,24.23l-7.72.7L2.68,17l2.59-2.59,6.68,6.68a.89.89,0,0,0,1.25,0l8.45-8.45a.89.89,0,0,0,0-1.25L15,4.72l2.59-2.59L25.49,10l-.7,7.72-1.31,1.31Zm-3.6,13.53,1.06,1.05-.1.1L5.11,49.48,4.06,48.42ZM7.8,52.17,6.36,50.73,17,40.07l1.44,1.44Zm11.91-9.41,1.44,1.44L10.49,54.86,9.05,53.42ZM9.49,59.24,2,51.73l1-1.85,8.33,8.33ZM23.36,46.6,12.8,57.16l-1.06-1.05.1-.1L22.4,45.45l1.06,1.05Zm1-1.64-8.14-8.14,3.63-1.56L26,41.32Zm.68-7-1.82-1.82L27.43,32l1.82,1.82Zm-3.59-14.4L24.1,21,44,40.84l-2.59,2.59ZM60.22,50l-.1-.1-6.58-6.58a.9.9,0,0,0-1.25,0l-8.45,8.45a.89.89,0,0,0,0,1.25l6.68,6.68-2.59,2.59-.1-.1L40,54.34l.7-7.72L42,45.31l5.15-5.15,7.72-.7,7.92,7.92Z"/><polygon class="cls-3" points="14.33 35.57 14.33 35.57 14.33 35.57 14.33 35.57"/></g></g></svg>