<svg xmlns="http://www.w3.org/2000/svg" viewBox="0 0 79.65 79.65"><defs><style>.cls-1{fill:#61b63d;}.cls-2{fill:#3ac5ef;}.cls-3{fill:#4995ec;}.cls-4{fill:#444b54;}</style></defs><title>Asset 8</title><g id="Layer_2" data-name="Layer 2"><g id="Layer_1-2" data-name="Layer 1"><path class="cls-1" d="M2.95,65v9.3S3.5,78.7,7.43,79s9.71,0,9.71,0-.89-6.15-4.58-10S2.95,65,2.95,65Z"/><path class="cls-2" d="M2.95,65v9.3S3.5,78.7,7.43,79s9.71,0,9.71,0-.89-6.15-4.58-10S2.95,65,2.95,65Z"/><path class="cls-1" d="M2.95,65v9.3S3.5,78.7,7.43,79s9.71,0,9.71,0-.89-6.15-4.58-10S2.95,65,2.95,65Z"/><path class="cls-1" d="M77.55,65v9.3S77,78.7,73.07,79s-9.71,0-9.71,0,.89-6.15,4.58-10S77.55,65,77.55,65Z"/><path class="cls-2" d="M77.55,65v9.3S77,78.7,73.07,79s-9.71,0-9.71,0,.89-6.15,4.58-10S77.55,65,77.55,65Z"/><path class="cls-1" d="M77.55,65v9.3S77,78.7,73.07,79s-9.71,0-9.71,0,.89-6.15,4.58-10S77.55,65,77.55,65Z"/><rect class="cls-3" x="34.64" y="37.61" width="10.62" height="15.9"/><path class="cls-4" d="M8,79.65H72.13a6.07,6.07,0,0,0,6.06-6.06V38.5l.86-.32a.94.94,0,0,0,.6-.87V18A6.07,6.07,0,0,0,73.59,12H56.15V3.5A3.5,3.5,0,0,0,52.65,0H27a3.5,3.5,0,0,0-3.5,3.5V12H6.06A6.07,6.07,0,0,0,0,18V37.31a.94.94,0,0,0,.6.87l1.12.42.23.08V73.59A6.07,6.07,0,0,0,8,79.65Zm0-1.86a4.2,4.2,0,0,1-4.2-4.2V66l.39,0A12.79,12.79,0,0,1,15.56,77.4l0,.39Zm68.31-4.2a4.2,4.2,0,0,1-4.2,4.2H64.54l0-.39A12.79,12.79,0,0,1,75.94,66l.39,0Zm-51-70.1A1.63,1.63,0,0,1,27,1.86H52.65A1.63,1.63,0,0,1,54.28,3.5V12H51V6.06a.93.93,0,0,0-.93-.93H29.57a.93.93,0,0,0-.93.93V12H25.37ZM49.15,7v5H30.5V7ZM1.86,36.67V18a4.2,4.2,0,0,1,4.2-4.2H73.59a4.2,4.2,0,0,1,4.2,4.2V36.67l-.23.08a109.27,109.27,0,0,1-13,3.89.93.93,0,1,0,.42,1.82,111.44,111.44,0,0,0,10.91-3.12l.46-.16v25l-.32,0a14.56,14.56,0,0,0-13.3,13.3l0,.32H17.47l0-.32a14.56,14.56,0,0,0-13.3-13.3l-.32,0V39.34l.46.16a111,111,0,0,0,29.4,5.65l.33,0v7.77a.93.93,0,0,0,.93.93H45.2a.93.93,0,0,0,.93-.93v-7.8l.33,0A112.07,112.07,0,0,0,59.88,43.5a.93.93,0,1,0-.34-1.83,110,110,0,0,1-13,1.58l-.37,0V37.55a.93.93,0,0,0-.93-.93H34.94a.93.93,0,0,0-.93.93V43.3l-.37,0A109.1,109.1,0,0,1,3.19,37.15l-1.1-.4Zm42.4,12.07V52H35.87V48.74Zm-8.39-1.86V38.48h8.39v8.39Z"/><circle class="cls-4" cx="13.84" cy="20.68" r="1.28"/><circle class="cls-4" cx="8.71" cy="25.8" r="1.28"/></g></g></svg>