<svg width="63" height="78" viewBox="0 0 63 78" xmlns="http://www.w3.org/2000/svg"><title>icon-watch</title><g transform="translate(-5)" fill="none" fill-rule="evenodd"><path d="M20 13.286v-7.29c0-2.207 1.78-4.196 3.974-4.413 0 0 4.103-.583 11.026-.583s11.026.583 11.026.583C48.22 1.813 50 3.788 50 5.995v7.29" stroke="#75767A" stroke-width="2" stroke-linecap="square"/><rect stroke="#75767A" stroke-width="2" x="6" y="10" width="58" height="58" rx="29"/><path d="M20 65v6.998c0 2.21 1.78 4.202 3.974 4.42 0 0 4.103.582 11.026.582s11.026-.583 11.026-.583c2.195-.23 3.974-2.21 3.974-4.42V65" stroke="#75767A" stroke-width="2" stroke-linecap="square"/><rect stroke="#75767A" stroke-width="2" stroke-linecap="square" stroke-dasharray="2,5" x="10" y="14" width="50" height="50" rx="25"/><circle stroke="#FF6300" stroke-width="4" cx="64" cy="21" r="2"/></g></svg>