<?xml version="1.0" encoding="utf-8"?>
<!-- Generator: Adobe Illustrator 19.1.0, SVG Export Plug-In . SVG Version: 6.00 Build 0)  -->
<svg version="1.1" id="Layer_1" xmlns="http://www.w3.org/2000/svg" xmlns:xlink="http://www.w3.org/1999/xlink" x="0px" y="0px"
	 viewBox="0 0 47 63.1" style="enable-background:new 0 0 47 63.1;" xml:space="preserve">
<style type="text/css">
	.st0{clip-path:url(#SVGID_2_);fill:#4995EC;}
	.st1{clip-path:url(#SVGID_2_);fill:#61B63D;}
	.st2{clip-path:url(#SVGID_2_);fill:#444B54;}
</style>
<g>
	<defs>
		<rect id="SVGID_1_" y="0" width="47" height="63.1"/>
	</defs>
	<clipPath id="SVGID_2_">
		<use xlink:href="#SVGID_1_"  style="overflow:visible;"/>
	</clipPath>
	<path class="st0" d="M28.9,3.7c-11,0-20.1,8.4-21.2,19.1L6,21.2c-0.4-0.4-1-0.4-1.4,0c-0.4,0.4-0.4,1,0,1.4l3.2,3.2c0,0,0,0,0,0
		c0,0,0,0,0.1,0.1c0,0,0,0,0,0c0,0,0,0,0,0c0,0,0,0,0,0s0,0,0,0c0,0,0,0,0,0s0,0,0,0c0,0,0,0,0,0c0,0,0,0,0,0c0,0,0,0,0,0
		c0,0,0,0,0.1,0c0,0,0,0,0.1,0c0,0,0,0,0,0c0,0,0.1,0,0.1,0c0,0,0.1,0,0.1,0c0,0,0,0,0,0c0,0,0,0,0.1,0c0,0,0,0,0,0c0,0,0,0,0,0
		c0,0,0,0,0,0c0,0,0,0,0,0s0,0,0,0c0,0,0,0,0,0c0,0,0,0,0,0c0,0,0,0,0,0c0,0,0,0,0,0c0,0,0,0,0,0c0,0,0,0,0.1-0.1c0,0,0,0,0,0
		l3.2-3.2c0.4-0.4,0.4-1,0-1.4c-0.4-0.4-1-0.4-1.4,0l-1.3,1.3C11,13.1,19.1,5.8,28.9,5.8c0.6,0,1-0.5,1-1
		C29.9,4.2,29.4,3.7,28.9,3.7"/>
	<path class="st1" d="M30.6,10.5l-3.2-3.2c-0.4-0.4-1-0.4-1.4,0c-0.4,0.4-0.4,1,0,1.4l1.6,1.6c-7.6,0.7-13.6,7.1-13.6,14.9
		c0,0.6,0.5,1,1,1c0.6,0,1-0.5,1-1c0-6.6,5-12.1,11.5-12.8L26,13.7c-0.4,0.4-0.4,1,0,1.4c0.2,0.2,0.5,0.3,0.7,0.3s0.5-0.1,0.7-0.3
		l3.2-3.2C31,11.5,31,10.9,30.6,10.5"/>
	<path class="st2" d="M23.4,55.1c0-0.6-0.5-1-1-1h-3.2c-0.6,0-1,0.4-1,1c0,0.1,0,0.2,0,0.3c0,0.1,0,0.2,0,0.3c0,0.6,0.5,1,1,1h3.2
		c0.6,0,1-0.4,1-1c0-0.1,0-0.2,0-0.3C23.4,55.3,23.4,55.2,23.4,55.1"/>
	<path class="st2" d="M42.7,35.1V1c0-0.6-0.4-1-1-1H1C0.5,0,0,0.4,0,1v51.4v6.4c0,0.6,0.5,1,1,1h24.1v2.2c0,0.6,0.4,1,1,1H46
		c0.6,0,1-0.5,1-1V39.4C47,37,45.1,35.1,42.7,35.1 M25.1,56.2v1.7H2v-4.4h23.1V56.2z M25.1,49.8v1.7H2V2h38.7v33.1h-1.4h-5.6v-3
		c2.3-1.6,3.6-4.2,3.6-7c0-4.7-3.8-8.5-8.5-8.5c-4.7,0-8.5,3.8-8.5,8.5c0,3.3,1.8,6.2,4.7,7.6v6.8H22c-2.4,0-4.3,1.9-4.3,4.3v0.7
		c0,2.4,1.9,4.3,4.3,4.3h3.1L25.1,49.8L25.1,49.8z M29.4,20.3c-2.4,0-4.3,1.9-4.3,4.3v5.7c-1.7-1.2-2.7-3.1-2.7-5.3
		c0-3.6,2.9-6.5,6.5-6.5c3.6,0,6.5,2.9,6.5,6.5c0,1.6-0.6,3.1-1.6,4.3v-4.8C33.7,22.3,31.8,20.3,29.4,20.3 M45,61.1H27.1v-2.2v-2.7
		v-3.8v-2.7v-1.8c0-0.6-0.4-1-1-1H22c-1.3,0-2.3-1-2.3-2.3v-0.7c0-1.3,1-2.3,2.3-2.3h4.1c0.6,0,1-0.4,1-1v-8.5v0v0v-7.4
		c0-1.3,1-2.3,2.3-2.3c1.3,0,2.3,1,2.3,2.3v6.9v4.6v4.4c0,0.6,0.5,1,1,1c0.6,0,1-0.4,1-1v-3.4h4.6v3.4c0,0.6,0.4,1,1,1s1-0.4,1-1
		v-3.4h1.4h1c1.3,0,2.3,1,2.3,2.3V61.1z"/>
</g>
</svg>
